<?xml version="1.0" standalone="no"?>
<!DOCTYPE svg PUBLIC "-//W3C//DTD SVG 20010904//EN"
 "http://www.w3.org/TR/2001/REC-SVG-20010904/DTD/svg10.dtd">
<svg version="1.0" xmlns="http://www.w3.org/2000/svg"
 width="512.000000pt" height="512.000000pt" viewBox="0 0 512.000000 512.000000"
 preserveAspectRatio="xMidYMid meet">

<g transform="translate(0.000000,512.000000) scale(0.100000,-0.100000)"
fill="#d1c8c8" stroke="none">
<path d="M1355 5114 c-207 -26 -376 -77 -543 -164 -413 -214 -702 -605 -788
-1065 -18 -94 -19 -171 -19 -1325 0 -1154 1 -1231 19 -1325 114 -610 566
-1071 1186 -1207 l105 -23 1245 0 1245 0 105 23 c307 68 558 202 769 413 210
210 346 463 413 769 l23 105 0 1245 0 1245 -23 105 c-34 153 -75 270 -143 400
-209 403 -579 682 -1038 783 -94 20 -116 21 -1311 23 -668 1 -1228 0 -1245 -2z
m552 -1794 c15 -6 169 -151 341 -323 l312 -312 313 312 c171 172 325 317 340
323 45 16 599 13 640 -4 43 -17 85 -68 93 -111 14 -78 22 -70 -660 -752 -705
-706 -676 -681 -768 -654 -38 11 -125 95 -684 654 -682 682 -674 674 -660 752
8 42 50 93 91 111 38 17 598 20 642 4z"/>
</g>
</svg>
